<?xml version="1.0" encoding="utf-8"?>
<!-- Generator: Adobe Illustrator 16.0.0, SVG Export Plug-In . SVG Version: 6.00 Build 0)  -->
<!DOCTYPE svg PUBLIC "-//W3C//DTD SVG 1.1//EN" "http://www.w3.org/Graphics/SVG/1.1/DTD/svg11.dtd">
<svg version="1.1" id="Layer_1" xmlns="http://www.w3.org/2000/svg" xmlns:xlink="http://www.w3.org/1999/xlink" x="0px" y="0px"
	 width="230px" height="37px" viewBox="0 0 230 37" enable-background="new 0 0 230 37" xml:space="preserve">
<linearGradient id="SVGID_1_" gradientUnits="userSpaceOnUse" x1="24.6934" y1="2.3154" x2="22.5315" y2="10.1766" gradientTransform="matrix(1 0 0 -1 -0.0552 36.8594)">
	<stop  offset="0" style="stop-color:#901A1D"/>
	<stop  offset="1" style="stop-color:#F1612A;stop-opacity:0.3"/>
</linearGradient>
<polygon opacity="0.5" fill="url(#SVGID_1_)" enable-background="new    " points="24.194,34.928 30.958,31.932 36.234,19.168 
	8.292,32.654 14.913,36.797 "/>
<linearGradient id="SVGID_2_" gradientUnits="userSpaceOnUse" x1="24.6934" y1="2.3154" x2="22.5315" y2="10.1766" gradientTransform="matrix(1 0 0 -1 -0.0552 36.8594)">
	<stop  offset="0" style="stop-color:#4B0600"/>
	<stop  offset="0.1704" style="stop-color:#610E06;stop-opacity:0.8296"/>
	<stop  offset="0.5261" style="stop-color:#9A2414;stop-opacity:0.4739"/>
	<stop  offset="1" style="stop-color:#EF442A;stop-opacity:0"/>
</linearGradient>
<polygon fill="url(#SVGID_2_)" enable-background="new    " points="24.194,34.928 30.958,31.932 36.234,19.168 8.292,32.654 
	14.913,36.797 "/>
<linearGradient id="SVGID_3_" gradientUnits="userSpaceOnUse" x1="18.7266" y1="14.3413" x2="22.5307" y2="10.7493" gradientTransform="matrix(1 0 0 -1 -0.0552 36.8594)">
	<stop  offset="0.0734" style="stop-color:#931C1D"/>
	<stop  offset="0.4971" style="stop-color:#BB3A23;stop-opacity:0.8"/>
	<stop  offset="1" style="stop-color:#F1612A;stop-opacity:0.3"/>
</linearGradient>
<polygon opacity="0.5" fill="url(#SVGID_3_)" enable-background="new    " points="24.194,34.928 30.958,31.932 36.234,19.168 
	8.292,32.654 14.913,36.797 "/>
<g>
	<g>
		<g>
			<path fill="#414142" d="M139.059,14.018c-1.066-0.81-3.145-1.426-6.875-1.426c-4.539,0-6.68,0.749-7.853,1.722
				c-1.425,1.167-2.269,3.174-2.269,6.452c0,3.246,0.75,4.963,1.908,5.965c1.207,1.105,3.51,1.658,7.981,1.658
				c4.06,0,6.132-0.359,6.812-0.744c0.84-0.424,1.491-1.656,1.623-2.271c0-0.163-0.098-0.263-0.324-0.229
				c-1.433,0.229-3.696,0.453-7.002,0.453c-3.438,0-5.615-0.259-6.457-0.908c-0.748-0.553-1.006-1.557-1.006-2.594
				c0-0.49,0.197-0.615,1.332-0.615h13.103c0.68,0,0.905-0.258,0.905-0.973C140.938,16.873,140.165,14.929,139.059,14.018z
				 M137.166,18.887c-0.229,0.159-0.746,0.159-1.656,0.159h-8.689c-1.104,0-1.266-0.098-1.266-0.487
				c0-0.743,0.319-1.877,1.067-2.499c0.746-0.578,2.271-0.935,5.222-0.935c2.561,0,4.021,0.288,4.576,0.713
				c0.615,0.482,0.938,1.389,0.938,2.495C137.355,18.531,137.33,18.753,137.166,18.887z"/>
			<path fill="#414142" d="M156.583,12.979c-0.649-0.326-1.946-0.418-4.67-0.418c-2.466,0-4.961,0.159-7.783,0.546
				c-0.294,0.033-0.425,0.134-0.425,0.453v14.174c0,0.291,0.131,0.422,0.425,0.422h2.69c0.254,0,0.361-0.164,0.361-0.391V17.161
				c0-1.262,0.125-1.329,1.062-1.463c1.334-0.16,3.18-0.223,4.896-0.223c2.271,0,3.928,0.16,4.639,0.196
				c0.195,0.027,0.262-0.1,0.262-0.23C158.012,14.762,157.359,13.365,156.583,12.979z"/>
			<path fill="#414142" d="M176.014,20.135c-1.225-0.812-11.936-0.971-12.711-1.557c-0.162-0.133-0.26-0.485-0.26-0.941
				c0-0.877,0.292-1.522,0.678-1.815c0.562-0.394,1.721-0.689,5.614-0.689c2.726,0,4.995,0.169,6.519,0.232
				c0.293,0,0.326-0.097,0.326-0.257c-0.033-0.486-0.676-1.592-1.296-1.979c-0.62-0.357-2.563-0.617-6.229-0.617
				c-4.604,0-6.713,0.649-7.717,1.557c-0.845,0.779-1.429,2.306-1.429,4.22c0,1.033,0.16,2.23,0.584,2.521
				c1.265,0.916,11.579,0.883,12.585,1.562c0.225,0.162,0.321,0.521,0.321,0.974c0,0.746-0.258,1.426-0.749,1.785
				c-0.545,0.354-1.811,0.58-4.99,0.58c-2.533,0-5.158-0.158-7.23-0.385c-0.229-0.033-0.324,0.096-0.293,0.227
				c0.062,0.485,0.716,1.719,1.363,2.143c0.645,0.392,2.817,0.644,6.42,0.644c4.801,0,6.717-0.546,7.59-1.321
				c0.906-0.748,1.527-2.207,1.527-4.412C176.637,21.5,176.375,20.357,176.014,20.135z"/>
			<path fill="#414142" d="M97.184,12.695h-2.762c-0.259,0-0.384,0.132-0.384,0.392V27.77c0,0.26,0.063,0.387,0.322,0.387h2.755
				c0.294,0,0.391-0.127,0.391-0.387V13.122C97.506,12.827,97.442,12.695,97.184,12.695z"/>
			<path fill="#414142" d="M68.249,12.681h-2.634c-0.25,0-0.414,0.166-0.414,0.421v10.511c0,0.963-0.222,1.216-1.279,1.382
				c-1.317,0.151-2.951,0.25-4.392,0.25c-2.98,0-4.457-0.382-5.063-0.955c-0.576-0.552-0.803-1.446-0.803-3.851v-6.921
				c0-0.64-0.192-0.837-0.8-0.837h-2.242c-0.256,0-0.385,0.259-0.385,0.482v8.463c0,3.009,0.351,4.228,1.214,5.062
				c1.028,0.961,3.111,1.541,7.533,1.541c3.464,0,7.342-0.354,9.199-0.645c0.319-0.061,0.448-0.125,0.448-0.414V13.103
				C68.631,12.814,68.564,12.681,68.249,12.681z"/>
			<path fill="#414142" d="M197.438,12.685h-2.631c-0.252,0-0.416,0.164-0.416,0.421v10.382c0,0.962-0.222,1.219-1.277,1.385
				c-1.315,0.152-2.949,0.25-4.393,0.25c-2.979,0-4.457-0.383-5.062-0.955c-0.576-0.555-0.806-1.447-0.806-3.852V13.52
				c0-0.639-0.188-0.835-0.799-0.835h-2.242c-0.258,0-0.387,0.131-0.387,0.354v8.463c0,3.01,0.352,4.227,1.217,5.062
				c1.027,0.959,3.11,1.541,7.532,1.541c3.464,0,7.343-0.354,9.198-0.646c0.318-0.061,0.449-0.126,0.449-0.414v-13.94
				C197.82,12.815,197.754,12.685,197.438,12.685z"/>
			<path fill="#414142" d="M121.221,12.703h-1.267c-1.619,0-2.013,0.361-2.466,1.499l-2.886,7.584
				c-0.679,1.752-1.198,2.758-1.752,3.118c-0.386,0.32-1.165,0.455-2.304,0.455c-1.36,0-2.106-0.2-2.525-0.486
				c-0.553-0.396-0.941-1.075-1.687-3.18l-2.692-7.491c-0.354-1.138-0.812-1.499-2.272-1.499h-1.651
				c-0.295,0-0.325,0.232-0.228,0.458l3.569,9.823c0.97,2.601,1.649,3.832,2.396,4.377c0.813,0.588,2.21,0.914,4.902,0.914
				c2.623,0,3.989-0.293,4.798-0.846c0.747-0.58,1.497-1.785,2.53-4.445l3.797-9.822C121.543,12.901,121.543,12.703,121.221,12.703z
				"/>
			<path fill="#414142" d="M228.116,14.148c-1.234-1.04-4.187-1.592-12.421-1.592c-6.357,0-10.965,0.393-14.012,0.679
				c-0.293,0.034-0.422,0.133-0.422,0.46v14.009c0,0.293,0.063,0.452,0.354,0.452h2.632c0.289,0,0.515-0.159,0.515-0.486V17.036
				c0-0.942,0.104-1.075,1.006-1.167c1.59-0.194,4.153-0.328,7.104-0.328c0.676,0,0.746,0.193,0.746,0.941v11.222
				c0,0.293,0.065,0.452,0.358,0.452h2.66c0.258,0,0.448-0.159,0.448-0.486V16.482c0-0.648,0.035-0.973,0.724-0.973
				c4.506,0,6.643,0.393,7.323,1.005c0.646,0.586,0.875,1.392,0.875,4.183v6.586c0,0.713,0.229,0.871,0.847,0.871h2.203
				c0.26,0,0.457-0.127,0.457-0.451v-8.17C229.512,16.253,229.156,15.089,228.116,14.148z"/>
			<path fill="#414142" d="M89.327,13.946c-1.041-0.941-2.857-1.367-7.2-1.367c-3.565,0-7.424,0.328-9.638,0.52
				c-0.292,0.033-0.417,0.133-0.417,0.42v14.208c0,0.293,0.066,0.455,0.388,0.455h2.659c0.26,0,0.459-0.16,0.459-0.455V16.99
				c0-1.005,0.125-1.231,0.998-1.292c1.459-0.099,3.146-0.234,5.224-0.234c2.663,0,3.958,0.36,4.541,0.914
				c0.584,0.58,0.911,1.519,0.911,4.052v6.877c0,0.646,0.16,0.875,0.777,0.875h2.273c0.259,0,0.419-0.129,0.419-0.42V19.07
				C90.72,16.052,90.23,14.785,89.327,13.946z"/>
		</g>
	</g>
</g>
<radialGradient id="SVGID_4_" cx="30.5981" cy="22.3887" r="35.0157" gradientTransform="matrix(0.9529 0 0 -0.9529 -11.3817 23.7961)" gradientUnits="userSpaceOnUse">
	<stop  offset="0" style="stop-color:#F1612A"/>
	<stop  offset="1" style="stop-color:#901A1D"/>
</radialGradient>
<polygon fill="url(#SVGID_4_)" points="14.913,36.797 8.292,32.654 0.686,23.316 0.489,22.141 2.1,14.253 2.564,7.105 14.124,0.204 
	23.289,2.389 32.052,6.247 36.234,19.168 30.958,31.932 24.194,34.928 "/>
<linearGradient id="SVGID_5_" gradientUnits="userSpaceOnUse" x1="19.167" y1="17.6069" x2="19.4455" y2="23.5249" gradientTransform="matrix(1 0 0 -1 -0.0552 36.8594)">
	<stop  offset="0" style="stop-color:#F1612A;stop-opacity:0.6"/>
	<stop  offset="1" style="stop-color:#F69262;stop-opacity:0"/>
</linearGradient>
<polygon fill="url(#SVGID_5_)" points="32.052,6.247 23.289,2.389 14.124,0.204 2.564,7.105 30.958,31.932 36.234,19.168 "/>
<linearGradient id="SVGID_6_" gradientUnits="userSpaceOnUse" x1="16.8433" y1="17.3711" x2="17.29" y2="17.8866" gradientTransform="matrix(1 0 0 -1 -0.0552 36.8594)">
	<stop  offset="0" style="stop-color:#FAAC69"/>
	<stop  offset="1" style="stop-color:#F1612A;stop-opacity:0"/>
</linearGradient>
<polygon opacity="0.8" fill="url(#SVGID_6_)" enable-background="new    " points="32.052,6.247 23.289,2.389 14.124,0.204 
	2.564,7.105 30.958,31.932 36.234,19.168 "/>
<linearGradient id="SVGID_7_" gradientUnits="userSpaceOnUse" x1="16.8311" y1="17.3599" x2="15.9974" y2="16.4166" gradientTransform="matrix(1 0 0 -1 -0.0552 36.8594)">
	<stop  offset="0" style="stop-color:#901A1D;stop-opacity:0.8"/>
	<stop  offset="0.018" style="stop-color:#931C1D;stop-opacity:0.791"/>
	<stop  offset="0.3193" style="stop-color:#BB3A23;stop-opacity:0.6403"/>
	<stop  offset="0.5937" style="stop-color:#D94F27;stop-opacity:0.5031"/>
	<stop  offset="0.8297" style="stop-color:#EB5C29;stop-opacity:0.3851"/>
	<stop  offset="1" style="stop-color:#F1612A;stop-opacity:0.3"/>
</linearGradient>
<polygon opacity="0.5" fill="url(#SVGID_7_)" enable-background="new    " points="2.1,14.253 0.489,22.141 0.686,23.316 
	8.292,32.654 14.913,36.797 24.194,34.928 30.958,31.932 2.564,7.105 "/>
<linearGradient id="SVGID_8_" gradientUnits="userSpaceOnUse" x1="0.5439" y1="11.3345" x2="31.0132" y2="11.3345" gradientTransform="matrix(1 0 0 -1 -0.0552 36.8594)">
	<stop  offset="0" style="stop-color:#C4341F;stop-opacity:0.6"/>
	<stop  offset="1" style="stop-color:#FDBD6E;stop-opacity:0"/>
</linearGradient>
<polygon fill="url(#SVGID_8_)" points="8.292,32.654 14.913,36.797 24.194,34.928 30.958,31.932 2.1,14.253 0.489,22.141 
	0.686,23.316 "/>
<linearGradient id="SVGID_9_" gradientUnits="userSpaceOnUse" x1="0.5439" y1="11.3345" x2="24.249" y2="11.3345" gradientTransform="matrix(1 0 0 -1 -0.0552 36.8594)">
	<stop  offset="0" style="stop-color:#E84425;stop-opacity:0.6"/>
	<stop  offset="1" style="stop-color:#F69262;stop-opacity:0"/>
</linearGradient>
<polygon fill="url(#SVGID_9_)" points="8.292,32.654 14.913,36.797 24.194,34.928 2.1,14.253 0.489,22.141 0.686,23.316 "/>
<linearGradient id="SVGID_10_" gradientUnits="userSpaceOnUse" x1="14.1792" y1="19.293" x2="36.2891" y2="19.293" gradientTransform="matrix(1 0 0 -1 -0.0552 36.8594)">
	<stop  offset="0" style="stop-color:#F1612A;stop-opacity:0.6"/>
	<stop  offset="1" style="stop-color:#F69262;stop-opacity:0"/>
</linearGradient>
<polygon fill="url(#SVGID_10_)" points="36.234,19.168 32.052,6.247 23.289,2.389 14.124,0.204 24.194,34.928 30.958,31.932 "/>
<linearGradient id="SVGID_11_" gradientUnits="userSpaceOnUse" x1="10.6631" y1="21.2461" x2="15.2589" y2="20.1975" gradientTransform="matrix(1 0 0 -1 -0.0552 36.8594)">
	<stop  offset="0" style="stop-color:#F69262"/>
	<stop  offset="1" style="stop-color:#AB3116;stop-opacity:0"/>
</linearGradient>
<polygon opacity="0.8" fill="url(#SVGID_11_)" enable-background="new    " points="36.234,19.168 32.052,6.247 23.289,2.389 
	14.124,0.204 24.194,34.928 30.958,31.932 "/>
<linearGradient id="SVGID_12_" gradientUnits="userSpaceOnUse" x1="18.2866" y1="19.0771" x2="32.2565" y2="22.3408" gradientTransform="matrix(1 0 0 -1 -0.0552 36.8594)">
	<stop  offset="0" style="stop-color:#FDBD6E"/>
	<stop  offset="1" style="stop-color:#E84425;stop-opacity:0.1"/>
</linearGradient>
<polygon opacity="0.5" fill="url(#SVGID_12_)" enable-background="new    " points="36.234,19.168 32.052,6.247 23.289,2.389 
	14.124,0.204 24.194,34.928 30.958,31.932 "/>
<linearGradient id="SVGID_13_" gradientUnits="userSpaceOnUse" x1="26.5317" y1="11.2192" x2="27.6982" y2="-3.1138" gradientTransform="matrix(1 0 0 -1 -0.0552 36.8594)">
	<stop  offset="0" style="stop-color:#E84425;stop-opacity:0"/>
	<stop  offset="1" style="stop-color:#A4281E"/>
</linearGradient>
<polygon opacity="0.5" fill="url(#SVGID_13_)" enable-background="new    " points="36.234,19.168 32.052,6.247 23.289,2.389 
	14.124,0.204 24.194,34.928 30.958,31.932 "/>
<linearGradient id="SVGID_14_" gradientUnits="userSpaceOnUse" x1="19.2578" y1="19.3047" x2="19.6002" y2="19.4005" gradientTransform="matrix(1 0 0 -1 -0.0552 36.8594)">
	<stop  offset="0" style="stop-color:#FFD273;stop-opacity:0.8"/>
	<stop  offset="0.1449" style="stop-color:#FDC56C;stop-opacity:0.6841"/>
	<stop  offset="0.4143" style="stop-color:#F7A259;stop-opacity:0.4686"/>
	<stop  offset="0.7759" style="stop-color:#EE6A3A;stop-opacity:0.1793"/>
	<stop  offset="1" style="stop-color:#E84425;stop-opacity:0"/>
</linearGradient>
<polygon opacity="0.3" fill="url(#SVGID_14_)" enable-background="new    " points="36.234,19.168 32.052,6.247 23.289,2.389 
	14.124,0.204 24.194,34.928 30.958,31.932 "/>
<linearGradient id="SVGID_15_" gradientUnits="userSpaceOnUse" x1="22.8408" y1="37.1494" x2="23.8408" y2="32.9824" gradientTransform="matrix(1 0 0 -1 -0.0552 36.8594)">
	<stop  offset="0" style="stop-color:#FFD273;stop-opacity:0.9"/>
	<stop  offset="0.1449" style="stop-color:#FDC56C;stop-opacity:0.7696"/>
	<stop  offset="0.4143" style="stop-color:#F7A259;stop-opacity:0.5272"/>
	<stop  offset="0.7759" style="stop-color:#EE6A3A;stop-opacity:0.2017"/>
	<stop  offset="1" style="stop-color:#E84425;stop-opacity:0"/>
</linearGradient>
<polygon opacity="0.5" fill="url(#SVGID_15_)" enable-background="new    " points="36.234,19.168 32.052,6.247 23.289,2.389 
	14.124,0.204 24.194,34.928 30.958,31.932 "/>
<linearGradient id="SVGID_16_" gradientUnits="userSpaceOnUse" x1="2.6191" y1="27.1738" x2="36.2891" y2="27.1738" gradientTransform="matrix(1 0 0 -1 -0.0552 36.8594)">
	<stop  offset="0" style="stop-color:#F1612A;stop-opacity:0.6"/>
	<stop  offset="1" style="stop-color:#F69262;stop-opacity:0"/>
</linearGradient>
<polygon fill="url(#SVGID_16_)" points="23.289,2.389 14.124,0.204 2.564,7.105 36.234,19.168 32.052,6.247 "/>
<linearGradient id="SVGID_17_" gradientUnits="userSpaceOnUse" x1="19.4585" y1="23.7344" x2="19.7825" y2="24.6164" gradientTransform="matrix(1 0 0 -1 -0.0552 36.8594)">
	<stop  offset="0" style="stop-color:#FEC470"/>
	<stop  offset="0.1796" style="stop-color:#FDB968;stop-opacity:0.8204"/>
	<stop  offset="0.4947" style="stop-color:#F99C54;stop-opacity:0.5053"/>
	<stop  offset="0.9056" style="stop-color:#F36D32;stop-opacity:0.0944"/>
	<stop  offset="1" style="stop-color:#F1612A;stop-opacity:0"/>
</linearGradient>
<polygon opacity="0.9" fill="url(#SVGID_17_)" enable-background="new    " points="23.289,2.389 14.124,0.204 2.564,7.105 
	36.234,19.168 32.052,6.247 "/>
<linearGradient id="SVGID_18_" gradientUnits="userSpaceOnUse" x1="14.9683" y1="15.3374" x2="36.2891" y2="15.3374" gradientTransform="matrix(1 0 0 -1 -0.0552 36.8594)">
	<stop  offset="0" style="stop-color:#901A1D;stop-opacity:0.8"/>
	<stop  offset="0.7265" style="stop-color:#D64E26;stop-opacity:0.2188"/>
	<stop  offset="1" style="stop-color:#F1612A;stop-opacity:0"/>
</linearGradient>
<polygon fill="url(#SVGID_18_)" points="30.958,31.932 36.234,19.168 32.052,6.247 14.913,36.797 24.194,34.928 "/>
<linearGradient id="SVGID_19_" gradientUnits="userSpaceOnUse" x1="23.5586" y1="15.3252" x2="23.9927" y2="15.084" gradientTransform="matrix(1 0 0 -1 -0.0552 36.8594)">
	<stop  offset="0" style="stop-color:#FCB96D"/>
	<stop  offset="0.1832" style="stop-color:#FBB369;stop-opacity:0.8168"/>
	<stop  offset="0.4263" style="stop-color:#F9A25C;stop-opacity:0.5737"/>
	<stop  offset="0.703" style="stop-color:#F68747;stop-opacity:0.297"/>
	<stop  offset="1" style="stop-color:#F1612A;stop-opacity:0"/>
</linearGradient>
<polygon opacity="0.6" fill="url(#SVGID_19_)" enable-background="new    " points="30.958,31.932 36.234,19.168 32.052,6.247 
	14.913,36.797 24.194,34.928 "/>
<linearGradient id="SVGID_20_" gradientUnits="userSpaceOnUse" x1="35.1523" y1="20.3291" x2="27.9763" y2="15.2174" gradientTransform="matrix(1 0 0 -1 -0.0552 36.8594)">
	<stop  offset="0" style="stop-color:#F69262"/>
	<stop  offset="1" style="stop-color:#E84425;stop-opacity:0"/>
</linearGradient>
<polygon opacity="0.7" fill="url(#SVGID_20_)" enable-background="new    " points="32.052,6.247 30.958,31.932 36.234,19.168 "/>
<linearGradient id="SVGID_21_" gradientUnits="userSpaceOnUse" x1="2.1553" y1="20.1914" x2="21.7261" y2="20.1914" gradientTransform="matrix(1 0 0 -1 -0.0552 36.8594)">
	<stop  offset="0" style="stop-color:#901A1D"/>
	<stop  offset="0.2581" style="stop-color:#961E1D;stop-opacity:0.8452"/>
	<stop  offset="0.6044" style="stop-color:#A7281F;stop-opacity:0.6374"/>
	<stop  offset="1" style="stop-color:#C33921;stop-opacity:0.4"/>
</linearGradient>
<polygon opacity="0.8" fill="url(#SVGID_21_)" enable-background="new    " points="2.1,14.253 2.564,7.105 20.731,22.988 
	21.671,26.23 "/>
<linearGradient id="SVGID_22_" gradientUnits="userSpaceOnUse" x1="2.6191" y1="30.4941" x2="17.752" y2="30.4941" gradientTransform="matrix(1 0 0 -1 -0.0552 36.8594)">
	<stop  offset="0" style="stop-color:#FCB96D"/>
	<stop  offset="1" style="stop-color:#E84425;stop-opacity:0"/>
</linearGradient>
<polygon opacity="0.8" fill="url(#SVGID_22_)" enable-background="new    " points="14.124,0.204 17.697,12.527 2.564,7.105 "/>
<linearGradient id="SVGID_23_" gradientUnits="userSpaceOnUse" x1="1.7764" y1="18.8496" x2="0.0514" y2="14.4639" gradientTransform="matrix(1 0 0 -1 -0.0552 36.8594)">
	<stop  offset="0" style="stop-color:#F69262"/>
	<stop  offset="1" style="stop-color:#E84425;stop-opacity:0"/>
</linearGradient>
<polygon fill="url(#SVGID_23_)" points="2.1,14.373 0.489,22.141 0.686,23.316 "/>
<linearGradient id="SVGID_24_" gradientUnits="userSpaceOnUse" x1="32.2354" y1="29.0703" x2="22.1125" y2="36.8628" gradientTransform="matrix(1 0 0 -1 -0.0552 36.8594)">
	<stop  offset="0" style="stop-color:#F69262"/>
	<stop  offset="1" style="stop-color:#FFFFFF;stop-opacity:0"/>
</linearGradient>
<polygon opacity="0.9" fill="url(#SVGID_24_)" enable-background="new    " points="23.289,2.389 31.846,6.614 32.052,6.247 "/>
<linearGradient id="SVGID_25_" gradientUnits="userSpaceOnUse" x1="26.771" y1="24.1523" x2="36.2891" y2="24.1523" gradientTransform="matrix(1 0 0 -1 -0.0552 36.8594)">
	<stop  offset="0" style="stop-color:#FEC870"/>
	<stop  offset="1" style="stop-color:#F1612A;stop-opacity:0"/>
</linearGradient>
<polygon opacity="0.8" fill="url(#SVGID_25_)" enable-background="new    " points="32.052,6.247 26.716,15.757 36.234,19.168 "/>
<linearGradient id="SVGID_26_" gradientUnits="userSpaceOnUse" x1="12.8857" y1="6.2646" x2="1.9944" y2="16.209" gradientTransform="matrix(1 0 0 -1 -0.0552 36.8594)">
	<stop  offset="0" style="stop-color:#FCB76C"/>
	<stop  offset="1" style="stop-color:#F1612A;stop-opacity:0"/>
</linearGradient>
<polygon opacity="0.8" fill="url(#SVGID_26_)" enable-background="new    " points="0.686,23.316 17.18,28.365 8.292,32.654 "/>
<linearGradient id="SVGID_27_" gradientUnits="userSpaceOnUse" x1="11.6479" y1="5.8066" x2="11.4734" y2="6.1487" gradientTransform="matrix(1 0 0 -1 -0.0552 36.8594)">
	<stop  offset="0" style="stop-color:#FDBD6E"/>
	<stop  offset="1" style="stop-color:#F1612A;stop-opacity:0"/>
</linearGradient>
<polygon opacity="0.3" fill="url(#SVGID_27_)" enable-background="new    " points="0.686,23.316 17.18,28.365 8.292,32.654 "/>
<linearGradient id="SVGID_28_" gradientUnits="userSpaceOnUse" x1="24.6934" y1="2.3154" x2="22.5315" y2="10.1766" gradientTransform="matrix(1 0 0 -1 -0.0552 36.8594)">
	<stop  offset="0" style="stop-color:#6B1716"/>
	<stop  offset="0.2063" style="stop-color:#811F19;stop-opacity:0.7937"/>
	<stop  offset="0.6336" style="stop-color:#BA3222;stop-opacity:0.3664"/>
	<stop  offset="1" style="stop-color:#EF442A;stop-opacity:0"/>
</linearGradient>
<polygon opacity="0.8" fill="url(#SVGID_28_)" enable-background="new    " points="24.194,34.928 30.958,31.932 36.234,19.168 
	8.292,32.654 14.913,36.797 "/>
<linearGradient id="SVGID_29_" gradientUnits="userSpaceOnUse" x1="14.2666" y1="10.374" x2="29.4331" y2="8.374" gradientTransform="matrix(1 0 0 -1 -0.0552 36.8594)">
	<stop  offset="0" style="stop-color:#EF442A;stop-opacity:0"/>
	<stop  offset="0.3256" style="stop-color:#C33A27;stop-opacity:0.0977"/>
	<stop  offset="0.7805" style="stop-color:#8A2C23;stop-opacity:0.2341"/>
	<stop  offset="1" style="stop-color:#742722;stop-opacity:0.3"/>
</linearGradient>
<polygon opacity="0.8" fill="url(#SVGID_29_)" enable-background="new    " points="24.194,34.928 30.958,31.932 36.234,19.168 
	8.292,32.654 14.913,36.797 "/>
<linearGradient id="SVGID_30_" gradientUnits="userSpaceOnUse" x1="31.1226" y1="17.8027" x2="32.2972" y2="17.7125" gradientTransform="matrix(1 0 0 -1 -0.0552 36.8594)">
	<stop  offset="0" style="stop-color:#FFCF71"/>
	<stop  offset="1" style="stop-color:#E84525;stop-opacity:0"/>
</linearGradient>
<polygon fill="url(#SVGID_30_)" enable-background="new    " points="32.052,6.247 30.958,31.932 36.234,19.168 "/>
<linearGradient id="SVGID_31_" gradientUnits="userSpaceOnUse" x1="25.2192" y1="28.7607" x2="30.2192" y2="20.0947" gradientTransform="matrix(1 0 0 -1 -0.0552 36.8594)">
	<stop  offset="0" style="stop-color:#FFCF71"/>
	<stop  offset="0.1368" style="stop-color:#FEC96E;stop-opacity:0.8632"/>
	<stop  offset="0.322" style="stop-color:#FBB864;stop-opacity:0.678"/>
	<stop  offset="0.535" style="stop-color:#F69B54;stop-opacity:0.465"/>
	<stop  offset="0.7675" style="stop-color:#F0743F;stop-opacity:0.2325"/>
	<stop  offset="1" style="stop-color:#E84525;stop-opacity:0"/>
</linearGradient>
<polygon fill="url(#SVGID_31_)" enable-background="new    " points="32.052,6.247 30.958,31.932 36.234,19.168 "/>
<linearGradient id="SVGID_32_" gradientUnits="userSpaceOnUse" x1="18.8003" y1="6.6992" x2="19.1333" y2="15.3657" gradientTransform="matrix(1 0 0 -1 -0.0552 36.8594)">
	<stop  offset="0" style="stop-color:#8B211A"/>
	<stop  offset="1" style="stop-color:#F1612A;stop-opacity:0"/>
</linearGradient>
<polygon opacity="0.8" fill="url(#SVGID_32_)" enable-background="new    " points="32.052,6.247 23.289,2.389 14.124,0.204 
	2.564,7.105 30.958,31.932 36.234,19.168 "/>
<linearGradient id="SVGID_33_" gradientUnits="userSpaceOnUse" x1="28.1533" y1="4.0225" x2="9.1449" y2="25.816" gradientTransform="matrix(1 0 0 -1 -0.0552 36.8594)">
	<stop  offset="0" style="stop-color:#801E20"/>
	<stop  offset="1" style="stop-color:#901A1D;stop-opacity:0.4"/>
</linearGradient>
<polygon fill="url(#SVGID_33_)" points="2.525,7.705 30.813,31.996 30.958,31.932 2.564,7.105 "/>
</svg>
